<?xml version="1.0" encoding="iso-8859-1"?>
<!-- Generator: Adobe Illustrator 19.0.0, SVG Export Plug-In . SVG Version: 6.00 Build 0)  -->
<svg version="1.1" id="Capa_1" xmlns="http://www.w3.org/2000/svg" xmlns:xlink="http://www.w3.org/1999/xlink" x="0px" y="0px"
	 viewBox="0 0 512.002 512.002" style="enable-background:new 0 0 512.002 512.002;" xml:space="preserve">
<path style="fill:#CA3042;" d="M415.461,380.496V187.156H260.334h-8.681H96.527v193.341c0,21.011-6.413,41.409-18.221,58.538
	c-3.041,4.411,0.174,10.423,5.532,10.423h167.816h8.681h167.816c5.357,0,8.573-6.012,5.532-10.423
	C421.874,421.905,415.461,401.507,415.461,380.496z"/>
<path style="fill:#B0142F;" d="M428.148,449.452h-32.752c5.36,0,8.569-6.002,5.535-10.414
	c-11.804-17.138-18.221-37.524-18.221-58.539V187.159h32.752v193.341c0,21.015,6.417,41.401,18.221,58.539
	C436.718,443.449,433.508,449.452,428.148,449.452z"/>
<path style="fill:#E3BB94;" d="M107.973,121.842v128.562h-1.96c-16.09,0-29.134,13.043-29.134,29.134l0,0
	c0,16.09,13.043,29.134,29.134,29.134h3.296c8.103,50.98,52.257,89.95,105.517,89.95h21.053c0,4.462,0,8.257,0,8.268
	c0,9.685-0.123,9.404-9.372,10.707c-7.133,1.005-13.974,3.763-19.816,7.977c-11.559,8.337-18.554,21.979-18.554,36.233v42.691
	h135.715v-42.691c0-14.254-6.995-27.895-18.554-36.233c-5.841-4.213-12.683-6.972-19.816-7.977
	c-9.249-1.302-9.372-1.022-9.372-10.707c0-0.011,0-3.806,0-8.268h21.053c59.013,0,106.853-47.84,106.853-106.853V121.842H107.973z"
	/>
<path style="fill:#32B2AC;" d="M323.848,461.807v42.689H188.14v-42.689c0-14.258,6.988-27.898,18.546-36.231
	c3.732-2.692,7.872-4.789,12.239-6.213c2.465-0.806,5.008-1.401,7.583-1.768c3.771-0.532,6.026-0.79,7.372-1.581l1.729,0.383
	l4.359,2.465c9.852,5.588,21.895,5.627,31.786,0.109l4.625-2.575l1.729-0.383c1.346,0.791,3.599,1.049,7.372,1.581
	c2.575,0.368,5.118,0.963,7.583,1.768c4.367,1.424,8.507,3.521,12.239,6.213C316.86,433.909,323.848,447.548,323.848,461.807z"/>
<g>
	<circle style="fill:#E8979F;" cx="169.549" cy="320.707" r="15.92"/>
	<circle style="fill:#E8979F;" cx="342.431" cy="320.707" r="15.92"/>
</g>
<path style="fill:#F5A5C7;" d="M255.994,376.99L255.994,376.99c-7.659,0-13.868-6.209-13.868-13.868v-39.503h27.736v39.503
	C269.862,370.781,263.653,376.99,255.994,376.99z"/>
<path style="fill:#F2B844;" d="M278.308,416.218v88.277H233.68v-88.487l1.731,0.39l4.353,2.462c9.856,5.584,21.904,5.624,31.79,0.11
	l4.623-2.572l1.731-0.39C278.028,416.078,278.168,416.148,278.308,416.218z"/>
<path style="fill:#D6AA85;" d="M408.162,250.403h-4.144V121.842h-42.243v169.922c0,59.02-47.831,106.851-106.851,106.851h42.243
	c53.254,0,97.41-38.961,105.515-89.944h5.48c16.09,0,29.134-13.043,29.134-29.134l0,0
	C437.296,263.447,424.253,250.403,408.162,250.403z"/>
<path style="fill:#CA3042;" d="M434.521,109.023c-11.705-31.249-33.583-66.797-60.952-86.97c-0.104-0.086-0.173-0.142-0.17-0.121
	c-12.368-9.064-27.619-14.427-44.126-14.427H182.716c-16.503,0-31.747,5.359-44.112,14.405c0,0-0.043,0.035-0.102,0.084
	c-14.591,12.012-26.706,26.64-37.447,42.265c-9.573,13.927-17.643,28.925-23.575,44.763
	C59.46,157.126,65.531,210.965,92.566,254.643l15.407,24.893c7.301-37.71,28.05-57.622,46.974-68.107
	c13.149-7.286,28.138-9.135,42.948-11.721c83.156-14.518,138.381-63.262,138.446-63.32c-1.401,1.237,6.875,16.187,7.586,17.491
	c7.246,13.287,18.61,23.319,29.303,33.745c3.786,3.692,8.483,7.517,11.451,11.921c10.13,15.029,13.309,29.2,15.452,47.23
	c1.299,10.92,2.597,21.84,3.896,32.761l15.407-24.893C446.469,210.965,452.539,157.127,434.521,109.023z"/>
<path style="fill:#B0142F;" d="M419.432,254.64l-15.4,24.891c-1.31-10.922-2.607-21.83-3.904-32.752
	c-1.978-16.684-4.853-30.051-13.289-43.86c7.032-30.92,5.24-63.538-6.122-93.898c-11.711-31.254-33.581-66.8-60.958-86.973
	c-0.094-0.067-0.16-0.12-0.174-0.12c-12.365-9.063-27.605-14.423-44.114-14.423h53.807c16.496,0,31.749,5.36,44.114,14.424
	c0.013,0,0.08,0.053,0.174,0.12c27.378,20.172,49.248,55.718,60.958,86.973C452.545,157.134,446.463,210.967,419.432,254.64z"/>
<path d="M212.86,300.476c-4.146,0-7.505-3.36-7.505-7.505V269.97c0-4.145,3.359-7.505,7.505-7.505s7.505,3.36,7.505,7.505v23.001
	C220.365,297.116,217.005,300.476,212.86,300.476z"/>
<path d="M299.128,300.476c-4.146,0-7.505-3.36-7.505-7.505V269.97c0-4.145,3.359-7.505,7.505-7.505c4.146,0,7.505,3.36,7.505,7.505
	v23.001C306.633,297.116,303.274,300.476,299.128,300.476z"/>
<g>
	<path style="fill:#CA3042;" d="M225.97,257.82H195.87c-4.146,0-7.505-3.36-7.505-7.505s3.359-7.505,7.505-7.505h30.099
		c4.146,0,7.505,3.36,7.505,7.505S230.115,257.82,225.97,257.82z"/>
	<path style="fill:#CA3042;" d="M316.118,257.82h-30.099c-4.146,0-7.505-3.36-7.505-7.505s3.359-7.505,7.505-7.505h30.099
		c4.146,0,7.505,3.36,7.505,7.505S320.263,257.82,316.118,257.82z"/>
</g>
<path d="M290.54,316.114h-20.678h-27.735h-20.678c-4.146,0-7.505,3.36-7.505,7.505c0,4.145,3.359,7.505,7.505,7.505h13.173v31.999
	c0,11.785,9.587,21.373,21.372,21.373c11.785,0,21.372-9.588,21.372-21.373v-31.999h13.174c4.146,0,7.505-3.36,7.505-7.505
	C298.044,319.474,294.685,316.114,290.54,316.114z M262.357,363.122c0,3.508-2.855,6.363-6.362,6.363s-6.362-2.855-6.362-6.363
	v-31.999h12.725v31.999H262.357z"/>
<path d="M441.55,106.391c-14.094-37.626-37.799-71.374-63.428-90.306c-0.15-0.116-0.302-0.226-0.454-0.329
	C363.527,5.447,346.798,0,329.272,0H182.717c-17.581,0-34.368,5.483-48.544,15.853c-0.108,0.08-0.216,0.163-0.32,0.249l-0.12,0.098
	c-13.558,11.161-26.27,25.491-38.862,43.808c-10.274,14.947-18.489,30.551-24.418,46.382c-9.202,24.567-12.586,51.502-9.786,77.894
	c2.493,23.505,9.905,46.661,21.512,67.461c-7.83,6.723-12.803,16.685-12.803,27.792c0,14.073,7.98,26.31,19.649,32.445v68.514
	c0,19.475-5.842,38.244-16.895,54.278c-2.984,4.329-3.316,9.916-0.867,14.581c2.464,4.691,7.283,7.606,12.576,7.606h97.045
	c-0.151,1.604-0.25,3.218-0.25,4.844v42.691c0,4.145,3.359,7.505,7.505,7.505h45.54h44.629h45.547c4.146,0,7.505-3.36,7.505-7.505
	v-42.691c0-1.626-0.1-3.239-0.25-4.843h97.045c5.293,0,10.113-2.914,12.576-7.606c2.45-4.665,2.117-10.253-0.867-14.581
	c-11.053-16.033-16.895-34.802-16.895-54.278v-67.457c12.847-5.699,21.835-18.567,21.835-33.503
	c0-11.796-5.614-22.295-14.298-29.001c11.221-20.485,18.389-43.204,20.832-66.252C454.135,157.893,450.751,130.957,441.55,106.391z
	 M84.383,279.536c0-5.635,2.174-10.761,5.722-14.608l10.129,16.365v19.089C91.104,297.848,84.383,289.463,84.383,279.536z
	 M184.6,441.952H85.396c12.198-18.253,18.636-39.463,18.636-61.455v-60.358c12.651,49.378,57.527,85.985,110.793,85.985h13.548
	v0.763c0,0.89,0,1.94-0.019,2.862c-0.659,0.1-1.391,0.202-2.083,0.299l-0.813,0.114c-8.318,1.171-16.328,4.395-23.16,9.322
	C194.328,425.235,188.263,433.077,184.6,441.952z M268.708,411.964l-0.813,0.452c-7.548,4.209-16.91,4.177-24.441-0.089
	l-0.191-0.108c0.094-1.303,0.114-2.7,0.118-4.217h25.225C268.61,409.421,268.628,410.734,268.708,411.964z M214.826,391.115
	c-54.78,0-99.347-44.568-99.347-99.348v-11.436c5.703-28.665,20.196-49.643,43.106-62.336c10.479-5.806,22.546-7.839,35.323-9.991
	c1.76-0.296,3.521-0.593,5.278-0.901c66.229-11.562,114.769-43.943,133.597-58.23c1.232,2.476,2.725,5.259,4.452,8.411l0.104,0.189
	c6.885,12.624,16.917,22.284,26.62,31.625c1.348,1.298,2.695,2.596,4.032,3.899c0.975,0.951,2.006,1.909,3.055,2.883
	c2.782,2.584,5.659,5.255,7.413,7.859c9.14,13.562,12.136,26.374,14.223,43.923l3.83,32.218v11.888
	c0,54.78-44.567,99.348-99.347,99.348L214.826,391.115L214.826,391.115z M195.641,461.806c0.001-11.904,5.773-23.174,15.44-30.146
	c4.481-3.232,9.674-5.417,15.092-6.394v71.726h-30.531v-35.186H195.641z M316.348,496.99H285.81v-10.177
	c0-4.145-3.359-7.505-7.505-7.505c-4.146,0-7.505,3.36-7.505,7.505v10.177h-29.619v-69.17c9.489,3.693,20.17,3.636,29.619-0.187
	v6.145c0,4.145,3.359,7.505,7.505,7.505c4.146,0,7.505-3.36,7.505-7.505v-8.516c5.419,0.976,10.616,3.162,15.098,6.395
	c9.667,6.974,15.439,18.243,15.44,30.146V496.99z M426.592,441.952h-99.204c-3.663-8.874-9.727-16.716-17.699-22.466
	c-6.831-4.927-14.841-8.15-23.16-9.321l-0.813-0.114c-0.692-0.097-1.424-0.199-2.083-0.299c-0.019-0.922-0.019-1.973-0.019-2.862
	v-0.763h13.548c53.266,0,98.142-36.609,110.793-85.985v60.358C407.956,402.486,414.395,423.699,426.592,441.952z M413.941,300.382
	v-22.603l8.78-14.184c4.335,3.953,7.071,9.626,7.071,15.942C429.791,289.463,423.071,297.848,413.941,300.382z M413.053,250.695
	l-4.109,6.637l-1.36-11.442c-2.298-19.331-5.891-34.529-16.681-50.54c-2.721-4.037-6.4-7.453-9.646-10.467
	c-0.957-0.89-1.899-1.764-2.789-2.631c-1.359-1.326-2.73-2.645-4.102-3.966c-9.293-8.948-18.073-17.4-23.853-28.001l-0.118-0.216
	c-4.08-7.444-5.941-11.593-6.562-13.303c0.095-1.886-0.519-3.81-1.866-5.339c-2.741-3.107-7.482-3.404-10.591-0.667
	c-0.538,0.474-54.785,47.592-134.774,61.557c-1.729,0.302-3.46,0.593-5.191,0.886c-13.46,2.267-27.378,4.613-40.103,11.664
	c-15.888,8.803-35.604,25.401-46.11,55.931l-6.253-10.102C72.997,208.771,67.6,156.793,84.506,111.657
	c5.502-14.688,13.15-29.205,22.732-43.145c11.768-17.118,23.535-30.423,35.961-40.663c11.551-8.401,25.212-12.839,39.518-12.839
	h146.555c14.382,0,28.107,4.487,39.691,12.975c0.059,0.042,0.117,0.084,0.177,0.125c27.564,20.329,48.218,56.484,58.354,83.545
	C444.399,156.792,439.001,208.77,413.053,250.695z"/>
<g>
</g>
<g>
</g>
<g>
</g>
<g>
</g>
<g>
</g>
<g>
</g>
<g>
</g>
<g>
</g>
<g>
</g>
<g>
</g>
<g>
</g>
<g>
</g>
<g>
</g>
<g>
</g>
<g>
</g>
</svg>
