<svg height="512" viewBox="0 0 512 512" width="512" xmlns="http://www.w3.org/2000/svg"><g id="A_Boy" data-name="A Boy"><g id="Filled"><path d="m489.94 310.06a47.813 47.813 0 0 0 -33.94-14.06c0-106.04-85.96-192-192-192h-16c-106.04 0-192 85.96-192 192a48 48 0 0 0 0 96v7a89 89 0 0 0 89 89h222a89 89 0 0 0 89-89v-7a48 48 0 0 0 33.94-81.94z" fill="#ffe7de"/><path d="m344 16a40 40 0 0 1 -40 40h-88a48 48 0 0 0 -48 48 48 48 0 0 0 48 48h40a88 88 0 0 0 88-88z" fill="#525252"/><path d="m216 392h80a0 0 0 0 1 0 0v8a40 40 0 0 1 -40 40 40 40 0 0 1 -40-40v-8a0 0 0 0 1 0 0z" fill="#e56161"/><path d="m344 16a39.9 39.9 0 0 1 -14.142 30.507c-25.164 46.211-72.223 89.493-121.858 89.493a136.182 136.182 0 0 1 -30.61-3.486 47.927 47.927 0 0 0 38.61 19.486h40a88 88 0 0 0 88-88z" fill="#3f3f3f"/><path d="m504 344a48.012 48.012 0 0 0 -40.86-47.469 268.445 268.445 0 0 1 -193.94 191.469h97.8a89 89 0 0 0 89-89v-7a48 48 0 0 0 48-48z" fill="#f9d8cd"/><circle cx="104" cy="416" fill="#fff5f2" r="24"/><circle cx="416" cy="416" fill="#fff5f2" r="24"/><path d="m296 392h-9.083a76.025 76.025 0 0 1 -55.943 39.194 39.822 39.822 0 0 0 25.026 8.806 40 40 0 0 0 40-40z" fill="#d65858"/><g fill="#fff5f2"><circle cx="140" cy="172" r="20"/><circle cx="176" cy="200" r="12"/></g></g><g id="Outline"><path d="m495.6 304.406a55.537 55.537 0 0 0 -31.739-15.863 200.34 200.34 0 0 0 -102.615-167.35 8 8 0 1 0 -7.791 13.974 184.315 184.315 0 0 1 94.545 160.833v16a8 8 0 0 0 16 0v-7.2a40.006 40.006 0 0 1 -8 79.2h-8v15a81.091 81.091 0 0 1 -81 81h-222a81.091 81.091 0 0 1 -81-81v-15h-8a40.007 40.007 0 0 1 -8-79.2v7.2a8 8 0 0 0 16 0v-16a184.658 184.658 0 0 1 58.81-134.84 8 8 0 0 0 -10.81-11.8l-.08.08a200.208 200.208 0 0 0 -46.7 65.26 198.617 198.617 0 0 0 -12.76 39.12 200.847 200.847 0 0 0 -4.306 34.731 56.009 56.009 0 0 0 -.154 110.886 97.113 97.113 0 0 0 97 96.563h222a97.113 97.113 0 0 0 97-96.563 56.007 56.007 0 0 0 31.6-95.031z"/><path d="m216 160h40a96.108 96.108 0 0 0 96-96v-48h-16a32.036 32.036 0 0 1 -32 32h-88a56 56 0 0 0 0 112zm0-96h88a47.81 47.81 0 0 0 32-12.252v12.252a80.049 80.049 0 0 1 -1.61 16h-102.39a8 8 0 0 0 0 16h97.3a80 80 0 0 1 -9.344 16h-103.956a8 8 0 0 0 0 16h87.945a79.581 79.581 0 0 1 -47.945 16h-40a40 40 0 0 1 0-80z"/><path d="m344 372a8 8 0 0 0 8-8 12 12 0 0 1 24 0 8 8 0 0 0 16 0 28 28 0 0 0 -56 0 8 8 0 0 0 8 8z"/><path d="m128 372a8 8 0 0 0 8-8 12 12 0 0 1 24 0 8 8 0 0 0 16 0 28 28 0 0 0 -56 0 8 8 0 0 0 8 8z"/><path d="m216 384a8 8 0 0 0 -8 8v8a48 48 0 0 0 96 0v-8a8 8 0 0 0 -8-8zm40 48a32.036 32.036 0 0 1 -32-32h64a32.036 32.036 0 0 1 -32 32z"/><path d="m142.51 143.56a7.909 7.909 0 0 0 4.39-1.32l.02-.01a8 8 0 1 0 -4.41 1.33z"/></g></g></svg>